# Blender 4.1.1
# www.blender.org
o Icosphere.001
v -0.675501 -0.163099 -1.190288
v 0.363278 -0.427007 -1.351953
v 0.474655 -0.298657 -1.523692
v 0.241455 -0.249632 -1.563524
v -0.014046 -0.347683 -1.416405
v -0.196505 -0.494680 -1.004518
v -0.574610 -0.310002 -1.015070
v -0.597694 -0.354328 -0.655847
v -0.283796 -0.407937 -0.510010
v -0.006401 -0.494680 -0.674363
v 0.256484 0.282419 -1.537423
v 0.092113 0.265929 -1.501337
v -0.332337 -0.031411 -1.387883
v 0.205839 -0.029961 -1.625379
v 0.349965 0.060523 -1.632509
v -0.303223 0.454756 -1.084850
v -0.494597 0.427007 -0.876110
v -0.681824 0.309465 -0.866850
v -0.606161 0.264568 -1.069865
v -0.338930 0.369259 -1.195209
v 0.112559 0.482508 -0.903920
v -0.246204 0.278920 -0.444723
v -0.440898 0.319850 -0.477978
v -0.347911 0.427007 -0.621359
v 0.739270 0.125261 -0.980812
v 0.653305 0.026196 -0.848261
v 0.478296 0.087423 -0.696161
v 0.309404 0.265261 -0.684562
v 0.540442 0.359752 -1.044271
v -0.061359 -0.202694 -0.418622
v -0.260308 -0.355303 -0.469218
v -0.554710 -0.083177 -0.385195
v -0.217548 0.102179 -0.394956
v -0.047003 -0.114158 -0.393693
v 0.716036 -0.270040 -1.185902
v 0.466011 -0.427007 -1.173536
v 0.210545 -0.469636 -0.785944
v 0.302526 -0.329996 -0.734874
v 0.626488 -0.139200 -0.894834
v 0.767597 0.069467 -1.390853
v 0.707605 -0.021754 -1.543585
v 0.591479 -0.235940 -1.499237
v 0.781716 -0.194352 -1.287175
v 0.808761 0.023456 -1.206864
v -0.745562 0.167218 -0.682096
v -0.655960 0.130088 -0.452950
v -0.592539 -0.075225 -0.391656
v -0.713329 -0.191547 -0.545467
v -0.752952 -0.094587 -0.814470
v 0.350004 0.060516 -1.632505
v 0.707578 -0.021745 -1.543601
v 0.406708 0.166374 -1.567187
v 0.487331 0.437085 -1.136509
v 0.252069 0.502736 -1.056086
v 0.707082 0.150432 -1.365040
v 0.515559 0.401136 -1.181855
v 0.402249 0.390263 -1.259197
v 0.459413 0.287809 -1.409593
v 0.374380 0.404059 -1.250690
v 0.252054 0.502736 -1.056112
v -0.075136 0.477638 -1.134923
v 0.314047 0.168906 -1.008478
v 1.021443 1.831094 -0.676170
v 0.754103 2.139875 -0.704584
v 0.554522 1.831094 -0.884709
v 0.698514 1.331479 -0.967617
v 1.139225 0.715245 -0.701436
v 0.700747 0.168906 -0.835774
v 1.019338 -0.168748 -0.433009
v 1.337378 0.168906 -0.062720
v 1.461372 0.715245 -0.141960
v -0.201346 1.831094 -0.390583
v -0.220041 1.559196 -0.479052
v 0.120658 0.839939 -0.897125
v 0.171573 1.831094 -0.803777
v 0.094282 2.048778 -0.630724
v -0.358952 0.626453 -0.079041
v -0.245988 0.168906 0.022910
v -0.145586 -0.113874 -0.201896
v -0.196496 0.168906 -0.442781
v -0.329334 0.667334 -0.317949
v -0.091688 1.084054 0.479366
v 0.392407 0.168906 0.628711
v 0.225781 -0.088890 0.478328
v 0.002583 0.168906 0.454606
v 0.641033 2.069420 0.538673
v 0.847373 1.831094 0.560601
v 0.795074 1.445474 0.677699
v 0.471148 1.187642 0.719075
v 0.166278 1.831094 0.510497
v 1.196795 0.418287 0.390135
v 1.299885 0.168906 0.050912
v 0.837610 -0.334483 0.172214
v 0.700518 0.168906 0.563595
v 1.091103 0.418289 0.507245
v 1.061455 2.208721 -0.073619
v 1.195533 1.831094 -0.373827
v 1.434367 1.128191 -0.103810
v 1.305535 1.220084 0.146664
v 1.044820 1.831094 0.341823
v 0.434447 2.457745 -0.009582
v 0.431175 2.498792 -0.325053
v 0.729214 2.290758 -0.534822
v 0.903806 2.390810 -0.090373
v 0.654210 2.362616 0.215827
v 0.171801 -0.363701 -0.133760
v 0.432050 -0.425879 0.192124
v 0.805235 -0.384572 0.142995
v 0.812381 -0.431897 -0.239625
v 0.456149 -0.262620 -0.529018
v 0.094312 2.048831 -0.630697
v 0.431139 2.498767 -0.325085
v 0.010645 2.076871 -0.416505
v -0.037290 1.831094 0.419582
v -0.174035 1.417598 0.405049
v 0.308928 2.347050 0.047386
v -0.005815 1.910892 0.352161
v -0.094334 1.809890 0.161506
v -0.029966 2.021012 -0.074639
v -0.120120 1.761772 0.163575
v -0.174060 1.417598 0.405005
v -0.333009 1.003749 0.043721
v -1.213307 0.226135 1.186229
v -0.572558 -0.217002 -0.458622
v -0.728095 -0.001485 -0.765122
v -0.982495 0.080834 -0.460024
v -0.984186 -0.083806 0.035033
v -0.539798 -0.330634 0.647171
v -0.873806 -0.020534 1.187389
v -0.371572 -0.094965 1.523684
v 0.104791 -0.184980 1.190735
v 0.099906 -0.330634 0.649358
v -0.931921 0.974219 -0.459851
v -1.018055 0.946530 -0.190725
v -1.211034 0.447256 0.521319
v -1.102345 0.449691 -0.460433
v -0.991223 0.601626 -0.675754
v -0.746408 1.263596 0.734447
v -0.604559 1.217002 1.188310
v -0.748915 1.019633 1.468020
v -0.979976 0.944245 1.187027
v -0.936775 1.120036 0.693288
v -0.133209 1.310196 0.283112
v 0.231290 0.968344 1.191167
v 0.018897 1.037071 1.445888
v -0.110958 1.217002 1.189997
v 0.283344 0.710329 -0.691851
v 0.403389 0.543987 -0.455286
v 0.476775 0.646794 -0.072929
v 0.351269 0.945409 0.182125
v 0.023604 1.104072 -0.456584
v 0.424993 0.159650 0.944721
v 0.183829 -0.096601 1.191005
v 0.057719 0.360335 1.689376
v 0.327719 0.671572 1.191497
v 0.473296 0.308313 0.944884
v -0.034086 0.046567 -0.830968
v -0.226860 -0.217002 -0.457440
v 0.120712 -0.288582 0.240246
v 0.272405 -0.054108 0.149708
v 0.313150 0.266264 -0.455594
v -0.288272 0.616645 -1.078592
v -0.560645 0.463471 -1.120195
v -0.594116 0.103825 -0.914171
v -0.125804 0.173657 -1.011711
v 0.013625 0.539385 -0.983298
v -0.534324 0.780781 1.716304
v -0.126019 0.718435 1.779312
v 0.016451 0.373688 1.738868
v -0.308731 0.178368 1.784650
v -0.732796 0.341176 1.615465
v -0.991184 0.601614 -0.675807
v -0.560691 0.463486 -1.120171
v -0.848531 0.779365 -0.703104
v -0.155117 1.233924 -0.457195
v -0.236610 1.344162 -0.047746
v -0.301790 0.752595 -0.968951
v -0.197179 1.173561 -0.536410
v -0.405004 1.155304 -0.437039
v -0.575240 0.983271 -0.646819
v -0.416139 1.178470 -0.389397
v -0.236660 1.344162 -0.047746
v -0.626887 1.302018 0.360998
vn 0.4510 0.6379 -0.6243
vn -0.5525 0.7689 0.3218
vn -0.9466 0.1733 -0.2717
vn -0.3835 -0.3074 -0.8709
vn 0.0262 -0.9883 -0.1502
vn -0.3804 -0.8048 -0.4557
vn -0.1111 0.2526 0.9612
vn -0.5133 0.3504 -0.7834
vn 0.3835 0.3074 0.8709
vn -0.0581 -0.7812 -0.6215
vn -0.3536 -0.6156 0.7043
vn -0.2986 -0.9535 0.0402
vn 0.3680 -0.5757 0.7302
vn 0.4990 -0.8175 -0.2874
vn 0.1688 -0.2510 -0.9531
vn -0.3383 0.2503 -0.9072
vn -0.5054 0.7751 -0.3792
vn 0.5607 -0.3074 0.7689
vn 0.2301 0.7980 0.5570
vn 0.3804 0.8048 0.4557
vn 0.5973 0.5532 0.5807
vn 0.8870 -0.2526 0.3865
vn 0.0036 -0.1675 0.9859
vn 0.5932 -0.6912 0.4128
vn 0.8847 -0.2438 -0.3974
vn -0.0886 0.9948 0.0510
vn -0.9370 -0.0035 0.3493
vn -0.8147 -0.5735 -0.0866
vn 0.3042 0.3769 -0.8749
vn 0.1727 0.4485 -0.8769
vn 0.7850 0.6194 -0.0105
vn 0.1591 0.8952 -0.4162
vn 0.4305 0.7612 -0.4849
vn 0.0355 0.9001 -0.4342
vn -0.0577 0.8627 -0.5024
vn -0.7105 0.7023 0.0444
vn -0.6647 -0.6394 0.3864
vn -0.5034 -0.6848 -0.5269
vn -0.2057 0.1022 -0.9733
vn 0.7980 0.0977 -0.5946
vn 0.4057 -0.1022 -0.9083
vn 0.1690 -0.5759 0.7999
vn -0.7703 -0.0539 -0.6354
vn 0.2057 -0.1022 0.9733
vn 0.3938 0.2598 -0.8817
vn 0.7500 -0.6579 0.0688
vn 0.7694 -0.2789 -0.5747
vn 0.9063 -0.0455 0.4202
vn 0.7085 0.5759 -0.4079
vn -0.1526 0.6219 -0.7681
vn -0.6934 0.1595 -0.7027
vn -0.9615 -0.2488 -0.1165
vn 0.7385 0.1022 0.6665
vn -0.3933 -0.0785 0.9160
vn -0.4057 0.1022 0.9083
vn -0.0796 0.2278 0.9704
vn 0.6069 0.5759 0.5477
vn 0.5723 -0.4888 0.6584
vn 0.9252 0.3081 0.2216
vn 0.2597 0.9650 -0.0375
vn -0.8621 -0.1022 0.4964
vn -0.0792 -0.9863 -0.1447
vn 0.2567 -0.6628 -0.7035
vn -0.6292 0.7002 -0.3374
vn -0.7249 0.5873 -0.3600
vn -0.3458 0.6856 0.6406
vn -0.9162 0.3455 0.2029
vn -0.7622 0.6151 0.2018
vn -0.9590 0.2474 0.1385
vn -0.9792 0.2007 0.0283
vn -0.3136 0.6379 -0.7034
vn 0.0010 0.7689 0.6394
vn -0.7102 0.1733 0.6824
vn -0.9457 -0.3074 -0.1055
vn -0.1168 -0.9883 -0.0981
vn -0.5851 -0.8048 0.1002
vn 0.7756 0.2526 0.5785
vn -0.9352 0.3504 0.0507
vn 0.9457 0.3074 0.1055
vn -0.5667 -0.7812 -0.2617
vn 0.4316 -0.6156 0.6594
vn -0.1151 -0.9535 0.2785
vn 0.8162 -0.5757 0.0483
vn 0.0020 -0.8175 -0.5759
vn -0.7396 -0.2510 -0.6244
vn -0.9544 0.2503 -0.1628
vn -0.5816 0.7751 0.2468
vn 0.9464 -0.3074 -0.0990
vn 0.5973 0.7980 0.0806
vn 0.5851 0.8048 -0.1002
vn 0.8020 0.5532 -0.2251
vn 0.7795 -0.2526 -0.5732
vn 0.8545 -0.1675 0.4917
vn 0.6548 -0.6912 -0.3058
vn 0.1004 -0.2438 -0.9646
vn -0.0003 0.9948 0.1022
vn -0.1683 -0.0035 0.9857
vn -0.4838 -0.5735 0.6611
vn -0.6040 0.3769 -0.7023
vn -0.6717 0.4485 -0.5896
vn 0.3849 0.6194 -0.6842
vn -0.2802 0.8952 -0.3465
vn -0.2033 0.7612 -0.6158
vn -0.3577 0.9001 -0.2487
vn -0.4635 0.8627 -0.2023
vt 0.943173 0.090504
vt 0.924794 0.064266
vt 0.932045 0.052066
vt 0.967473 0.042096
vt 1.000000 0.058222
vt 0.983697 0.073087
vt 0.943177 0.090505
vt 0.286832 0.822188
vt 0.264984 0.811959
vt 0.256620 0.762246
vt 0.272106 0.745238
vt 0.306096 0.753269
vt 0.306838 0.795664
vt 0.375223 0.856324
vt 0.298852 0.845105
vt 0.354712 0.808469
vt 0.373847 0.966479
vt 0.349483 0.987191
vt 0.319310 0.980021
vt 0.341124 0.932629
vt 0.373847 0.904811
vt 0.715307 0.862997
vt 0.742283 0.907250
vt 0.734280 0.941547
vt 0.696077 0.976304
vt 0.679442 0.922786
vt 0.694251 0.859321
vt 0.624050 0.984888
vt 0.636976 0.950047
vt 0.275896 0.723523
vt 0.304189 0.708736
vt 0.339256 0.728942
vt 0.338520 0.733161
vt 0.276405 0.950202
vt 0.274646 0.898022
vt 0.301241 0.878757
vt 0.555868 0.857103
vt 0.561773 0.882813
vt 0.504902 0.914835
vt 0.500815 0.883419
vt 0.507292 0.857308
vt 0.742283 0.962134
vt 0.718672 0.983616
vt 0.384092 0.710091
vt 0.394344 0.716540
vt 0.392740 0.764940
vt 0.363643 0.762415
vt 0.632602 0.895339
vt 0.663008 0.852188
vt 0.548422 0.957228
vt 0.545723 0.984611
vt 0.524562 0.988877
vt 0.497882 0.973866
vt 0.496423 0.962847
vt 0.504695 0.930822
vt 0.882352 0.136960
vt 0.876181 0.105035
vt 0.890250 0.097790
vt 0.930395 0.124657
vt 0.938118 0.139926
vt 0.914259 0.152213
vt 0.989020 0.095707
vt 0.989024 0.095707
vt 0.992581 0.114110
vt 0.965240 0.142836
vt 0.298080 0.983950
vt 0.266276 0.960990
vt 0.256620 0.887015
vt 0.265144 0.861427
vt 0.292722 0.856324
vt 0.582803 0.895513
vt 0.582416 0.925379
vt 0.918694 0.202652
vt 0.903647 0.152213
vt 0.960380 0.152213
vt 0.978561 0.170925
vt 0.967149 0.188632
vt 0.903142 0.217245
vt 0.879716 0.213024
vt 0.876181 0.194006
vt 0.600817 0.883136
vt 0.601244 0.852188
vt 0.622455 0.908300
vt 0.624049 0.948283
vt 0.610286 0.957739
vt 0.354607 0.691009
vt 0.338797 0.688686
vt 0.593784 0.988877
vt 0.893523 0.057847
vt 0.933913 0.250746
vt 0.903143 0.217250
vt 0.978071 0.237755
vt 0.956738 0.257774
vt 0.394344 0.817912
vt 0.876181 0.029495
vt 0.917538 0.004089
vt 0.939764 0.000000
vt 0.940980 0.007609
vt 0.886626 0.236894
vt 0.876600 0.217590
vt 0.889356 0.237647
vt 0.959359 0.018226
vt 0.914193 0.292931
vt 0.897744 0.287867
vt 0.879727 0.254723
vt 0.959241 0.275845
vt 0.045882 0.001951
vt 0.094327 0.000000
vt 0.096193 0.018699
vt 0.061053 0.081509
vt 0.006248 0.124630
vt 0.011731 0.081140
vt 0.045875 0.001957
vt 0.098864 0.447223
vt 0.115538 0.394422
vt 0.199591 0.379161
vt 0.228913 0.419213
vt 0.213240 0.481548
vt 0.142068 0.483487
vt 0.404057 0.703207
vt 0.475052 0.734984
vt 0.479243 0.779399
vt 0.455404 0.823873
vt 0.413550 0.792848
vt 0.104141 0.686549
vt 0.083358 0.764608
vt 0.053391 0.753206
vt 0.068285 0.588328
vt 0.096199 0.483487
vt 0.290408 0.210621
vt 0.366800 0.098980
vt 0.426182 0.107060
vt 0.484920 0.201115
vt 0.394064 0.296416
vt 0.284178 0.281466
vt 0.496423 0.402945
vt 0.438251 0.395937
vt 0.890038 0.492999
vt 0.894999 0.545750
vt 0.874459 0.552017
vt 0.833941 0.458417
vt 0.832977 0.448168
vt 0.855281 0.432668
vt 0.008339 0.708824
vt 0.000000 0.568931
vt 0.023103 0.488750
vt 0.894999 0.719591
vt 0.874733 0.769771
vt 0.849705 0.602125
vt 0.460121 0.057392
vt 0.496423 0.115522
vt 0.266030 0.458314
vt 0.256620 0.371505
vt 0.270249 0.373684
vt 0.343987 0.441880
vt 0.326767 0.484122
vt 0.271919 0.467744
vt 0.802393 0.727490
vt 0.773468 0.706790
vt 0.770557 0.637920
vt 0.786276 0.547052
vt 0.798605 0.550142
vt 0.833846 0.600821
vt 0.342517 0.029289
vt 0.362530 0.000000
vt 0.440635 0.028216
vt 0.063763 0.860704
vt 0.027433 0.891703
vt 0.027434 0.891696
vt 0.033505 0.792777
vt 0.033506 0.792766
vt 0.079347 0.829931
vt 0.000000 0.757050
vt 0.077215 0.321416
vt 0.050237 0.406849
vt 0.042788 0.320831
vt 0.859605 0.830692
vt 0.829978 0.828256
vt 0.167464 0.225055
vt 0.244867 0.193682
vt 0.256620 0.369326
vt 0.139528 0.171835
vt 0.139834 0.099832
vt 0.169614 0.094696
vt 0.204360 0.047610
vt 0.231467 0.084637
vt 0.256620 0.147167
vt 0.834172 0.900543
vt 0.793833 0.901042
vt 0.788820 0.875984
vt 0.866167 0.863489
vt 0.266398 0.190574
vt 0.273752 0.084546
vt 0.235420 0.536512
vt 0.224194 0.585036
vt 0.192767 0.589799
vt 0.192767 0.510217
vt 0.225279 0.483486
vt 0.085884 0.253902
vt 0.139519 0.171836
vt 0.457801 0.895637
vt 0.431088 0.923038
vt 0.404057 0.870625
vt 0.403543 0.464644
vt 0.012410 0.803561
vt 0.148341 0.006960
vt 0.129856 0.087841
vt 0.097553 0.111374
vt 0.097289 0.119773
vt -0.000000 0.173283
vt 0.485970 0.550776
vt 0.496423 0.588435
vt 0.484744 0.614007
vt 0.439531 0.652337
vt 0.404057 0.643414
vt 0.431116 0.605956
vt 0.485965 0.550778
vt 0.182647 0.576743
vt 0.164700 0.613889
vt 0.116394 0.581746
vt 0.107168 0.530856
vt 0.126331 0.483487
vt 0.165352 0.520614
vt 0.675409 0.192740
vt 0.561113 0.143744
vt 0.564012 0.081292
vt 0.617612 0.038364
vt 0.682657 0.087417
vt 0.689521 0.357119
vt 0.643908 0.422603
vt 0.579908 0.416215
vt 0.614148 0.280691
vt 0.876181 0.167255
vt 0.846097 0.298137
vt 0.812754 0.320032
vt 0.764241 0.270100
vt 0.810453 0.145131
vt 0.872153 0.104614
vt 0.723934 0.176692
vt 0.762915 0.243242
vt 0.336338 0.688686
vt 0.301441 0.678183
vt 0.292678 0.632588
vt 0.347669 0.584661
vt 0.354450 0.586702
vt 0.369895 0.639659
vt 0.509067 0.348818
vt 0.514605 0.205326
vt 0.709313 0.590426
vt 0.654620 0.612273
vt 0.614529 0.455428
vt 0.679995 0.437697
vt 0.730097 0.451254
vt 0.792898 0.379087
vt 0.762915 0.348227
vt 0.286880 0.501326
vt 0.288894 0.484122
vt 0.343106 0.491209
vt 0.369895 0.544778
vt 0.762915 0.084407
vt 0.811089 0.000000
vt 0.862989 0.021194
vt 0.537667 0.583904
vt 0.498343 0.579083
vt 0.498164 0.519375
vt 0.532477 0.441246
vt 0.548024 0.436109
vt 0.588870 0.456862
vt 0.858754 0.346101
vt 0.847045 0.380926
vt 0.803448 0.394644
vt 0.475642 0.500485
vt 0.423899 0.572702
vt 0.423892 0.572705
vt 0.404057 0.552593
vt 0.418580 0.498927
vt 0.458443 0.484122
vt 0.549131 0.432668
vt 0.496423 0.380428
vt 0.496423 0.178326
vt 0.524031 0.102665
vt 0.629994 0.673373
vt 0.582059 0.676053
vt 0.770556 0.623017
vt 0.745040 0.432668
vt 0.770556 0.484874
vt 0.770003 0.681479
vt 0.744528 0.733357
vt 0.723399 0.715800
vt 0.653583 0.721636
vt 0.617778 0.784635
vt 0.554048 0.794064
vt 0.536026 0.757189
vt 0.256620 0.545481
vt 0.256864 0.571572
vt 0.496423 0.713326
vt 0.627573 0.825720
vt 0.599134 0.852188
vt 0.541131 0.817968
vt 0.158167 0.744783
vt 0.115656 0.783538
vt 0.115651 0.783535
vt 0.109015 0.725086
vt 0.173804 0.694068
vt 0.639269 -0.000000
vt 0.698248 0.009591
vt 0.725288 0.036540
vt 0.759745 0.091424
vt 0.732603 0.747585
vt 0.652611 0.813043
vt 0.129211 0.851658
vt 0.107777 0.853912
vt 0.104141 0.839898
vt 0.130659 0.845372
vt 0.450549 0.703207
vt 0.430850 0.695549
vt 0.192767 0.849773
vt 0.181498 0.886322
vt 0.144661 0.892376
vt 0.192767 0.710435
s 0
f 41/1/1 51/7/1 52/6/1 11/5/1 58/4/1 55/3/1 40/2/1
f 18/8/2 45/13/2 46/12/2 23/11/2 24/10/2 17/9/2
f 1/14/3 49/16/3 45/13/3 18/8/3 19/15/3
f 5/17/4 1/21/4 13/20/4 14/19/4 4/18/4
f 37/22/5 10/27/5 6/26/5 5/25/5 2/24/5 36/23/5
f 5/25/6 6/26/6 7/29/6 1/28/6
f 23/11/7 46/12/7 47/33/7 32/32/7 33/31/7 22/30/7
f 13/20/8 1/21/8 19/36/8 20/35/8 12/34/8
f 28/37/9 22/41/9 33/40/9 34/39/9 27/38/9
f 2/24/10 5/25/10 4/43/10 3/42/10
f 32/32/11 47/33/11 48/47/11 8/46/11 9/45/11 31/44/11
f 6/26/12 10/27/12 9/49/12 8/48/12 7/29/12
f 38/50/13 30/55/13 31/54/13 9/53/13 10/52/13 37/51/13
f 36/56/14 2/61/14 3/60/14 42/59/14 43/58/14 35/57/14
f 42/59/15 3/60/15 4/65/15 14/64/15 15/63/15 50/62/15 51/7/15 41/1/15
f 15/66/16 14/19/16 13/20/16 12/34/16 11/67/16
f 16/68/17 20/35/17 19/36/17 18/70/17 17/69/17
f 27/38/18 34/39/18 30/55/18 38/50/18 39/72/18 26/71/18
f 21/73/19 24/77/19 23/76/19 22/75/19 28/74/19
f 54/78/20 21/73/20 28/74/20 29/80/20 53/79/20
f 25/81/21 29/82/21 28/37/21 27/38/21 26/71/21
f 44/83/22 25/81/22 26/71/22 39/72/22 35/85/22 43/84/22
f 30/86/23 34/87/23 33/31/23 32/32/23 31/44/23
f 35/85/24 39/72/24 38/50/24 37/51/24 36/88/24
f 40/2/25 44/89/25 43/58/25 42/59/25 41/1/25
f 61/90/26 16/93/26 17/92/26 24/77/26 21/73/26 54/78/26 60/91/26
f 45/13/27 49/16/27 48/47/27 47/33/27 46/12/27
f 8/46/28 48/47/28 49/16/28 1/14/28 7/94/28
f 50/62/29 52/6/29 51/7/29
f 50/62/30 15/63/30 11/5/30 52/6/30
f 40/2/31 55/3/31 56/98/31 53/97/31 29/96/31 25/95/31 44/89/31
f 57/99/32 59/101/32 60/91/32 54/78/32 53/79/32 56/100/32
f 55/3/33 58/4/33 57/102/33 56/98/33
f 59/101/34 61/90/34 60/91/34
f 12/103/35 20/106/35 16/93/35 61/90/35 59/101/35 57/99/35 58/105/35 11/104/35
f 102/107/36 112/113/36 113/112/36 72/111/36 119/110/36 116/109/36 101/108/36
f 79/114/37 106/119/37 107/118/37 84/117/37 85/116/37 78/115/37
f 62/120/38 110/124/38 106/123/38 79/122/38 80/121/38
f 66/125/39 62/129/39 74/128/39 75/127/39 65/126/39
f 98/130/40 71/135/40 67/134/40 66/133/40 63/132/40 97/131/40
f 66/133/41 67/134/41 68/137/41 62/136/41
f 84/138/42 107/143/42 108/142/42 93/141/42 94/140/42 83/139/42
f 74/128/43 62/129/43 80/146/43 81/145/43 73/144/43
f 89/147/44 83/139/44 94/140/44 95/149/44 88/148/44
f 63/132/45 66/133/45 65/151/45 64/150/45
f 93/152/46 108/157/46 109/156/46 69/155/46 70/154/46 92/153/46
f 67/134/47 71/135/47 70/154/47 69/155/47 68/137/47
f 99/158/48 91/163/48 92/162/48 70/161/48 71/160/48 98/159/48
f 97/131/49 63/132/49 64/150/49 103/166/49 104/165/49 96/164/49
f 103/167/50 64/172/50 65/126/50 75/127/50 76/171/50 111/170/50 112/169/50 102/168/50
f 76/171/51 75/127/51 74/128/51 73/144/51 72/173/51
f 77/174/52 81/176/52 80/175/52 79/114/52 78/115/52
f 88/148/53 95/149/53 91/163/53 99/158/53 100/178/53 87/177/53
f 82/179/54 85/116/54 84/117/54 83/181/54 89/180/54
f 115/182/55 82/179/55 89/180/55 90/184/55 114/183/55
f 86/185/56 90/184/56 89/180/56 88/187/56 87/186/56
f 105/188/57 86/191/57 87/177/57 100/178/57 96/190/57 104/189/57
f 91/163/58 95/149/58 94/140/58 93/141/58 92/162/58
f 96/164/59 100/193/59 99/192/59 98/130/59 97/131/59
f 101/194/60 105/198/60 104/197/60 103/196/60 102/195/60
f 122/199/61 77/174/61 78/115/61 85/116/61 82/179/61 115/182/61 121/200/61
f 106/123/62 110/124/62 109/203/62 108/202/62 107/201/62
f 69/155/63 109/156/63 110/204/63 62/136/63 68/137/63
f 111/170/64 113/205/64 112/169/64
f 111/170/65 76/171/65 72/173/65 113/205/65
f 101/108/66 116/109/66 117/207/66 114/183/66 90/184/66 86/185/66 105/206/66
f 118/208/67 120/209/67 121/200/67 115/182/67 114/183/67 117/207/67
f 116/109/68 119/110/68 118/208/68 117/207/68
f 120/209/69 122/199/69 121/200/69
f 73/210/70 81/176/70 77/174/70 122/199/70 120/209/70 118/208/70 119/110/70 72/111/70
f 163/211/71 173/217/71 174/216/71 133/215/71 180/214/71 177/213/71 162/212/71
f 140/218/72 167/223/72 168/222/72 145/221/72 146/220/72 139/219/72
f 123/224/73 171/228/73 167/227/73 140/226/73 141/225/73
f 127/229/74 123/224/74 135/232/74 136/231/74 126/230/74
f 159/233/75 132/238/75 128/237/75 127/236/75 124/235/75 158/234/75
f 127/229/76 128/240/76 129/239/76 123/224/76
f 145/241/77 168/246/77 169/245/77 154/244/77 155/243/77 144/242/77
f 135/232/78 123/224/78 141/225/78 142/248/78 134/247/78
f 150/249/79 144/253/79 155/252/79 156/251/79 149/250/79
f 124/235/80 127/236/80 126/255/80 125/254/80
f 154/244/81 169/245/81 170/259/81 130/258/81 131/257/81 153/256/81
f 128/237/82 132/238/82 131/262/82 130/261/82 129/260/82
f 160/263/83 152/268/83 153/267/83 131/266/83 132/265/83 159/264/83
f 158/234/84 124/235/84 125/254/84 164/271/84 165/270/84 157/269/84
f 164/272/85 125/277/85 126/276/85 136/275/85 137/274/85 172/273/85 173/217/85 163/211/85
f 137/278/86 136/231/86 135/232/86 134/247/86 133/279/86
f 138/280/87 142/248/87 141/225/87 140/226/87 139/281/87
f 149/250/88 156/251/88 152/268/88 160/263/88 161/283/88 148/282/88
f 143/284/89 146/286/89 145/285/89 144/253/89 150/249/89
f 176/287/90 143/284/90 150/249/90 151/289/90 175/288/90
f 147/290/91 151/289/91 150/249/91 149/250/91 148/282/91
f 166/291/92 147/290/92 148/282/92 161/283/92 157/293/92 165/292/92
f 152/294/93 156/295/93 155/243/93 154/244/93 153/256/93
f 157/293/94 161/283/94 160/263/94 159/264/94 158/296/94
f 162/297/95 166/291/95 165/292/95 164/299/95 163/298/95
f 183/300/96 138/304/96 139/219/96 146/220/96 143/303/96 176/302/96 182/301/96
f 167/227/97 171/228/97 170/307/97 169/306/97 168/305/97
f 130/308/98 170/307/98 171/228/98 123/224/98 129/239/98
f 172/273/99 174/216/99 173/217/99
f 172/273/100 137/274/100 133/215/100 174/216/100
f 162/297/101 177/310/101 178/309/101 175/288/101 151/289/101 147/290/101 166/291/101
f 179/311/102 181/314/102 182/301/102 176/302/102 175/313/102 178/312/102
f 177/213/103 180/214/103 179/316/103 178/315/103
f 181/314/104 183/300/104 182/301/104
f 134/317/105 142/320/105 138/304/105 183/300/105 181/314/105 179/311/105 180/319/105 133/318/105
